grf
version=1
nRows=14
nColumns=37
inDegrees=no
endheader
time	ground_force_1_vx	ground_force_1_vy	ground_force_1_vz	ground_force_1_px	ground_force_1_py	ground_force_1_pz	ground_moment_1_mx	ground_moment_1_my	ground_moment_1_mz	ground_force_2_vx	ground_force_2_vy	ground_force_2_vz	ground_force_2_px	ground_force_2_py	ground_force_2_pz	ground_moment_2_mx	ground_moment_2_my	ground_moment_2_mz	ground_force_3_vx	ground_force_3_vy	ground_force_3_vz	ground_force_3_px	ground_force_3_py	ground_force_3_pz	ground_moment_3_mx	ground_moment_3_my	ground_moment_3_mz	ground_force_4_vx	ground_force_4_vy	ground_force_4_vz	ground_force_4_px	ground_force_4_py	ground_force_4_pz	ground_moment_4_mx	ground_moment_4_my	ground_moment_4_mz
      7.38000000	      0.00000000	     -0.00000000	      0.00000000	      0.00000000	      0.00000000	      0.00000000	      0.00000000	      0.00000000	      0.00000000	     25.16761398	    163.21006775	   -820.12438965	   -303.32084277	  -1208.81516625	      0.00000000	      0.00000000	     -0.00000000	  -4641.70826623	     -1.47430652	   -141.12545763	   -658.23400879	   -304.43315039	   -574.06848082	      0.00000000	      0.00000000	     -0.00000000	  -4049.66145179	      0.00000000	     -0.00000000	      0.00000000	      0.00000000	      0.00000000	      0.00000000	      0.00000000	      0.00000000	      0.00000000
      7.39000000	      0.00000000	     -0.00000000	      0.00000000	      0.00000000	      0.00000000	      0.00000000	      0.00000000	      0.00000000	      0.00000000	     16.76046562	    159.28713989	   -779.99798584	   -302.01397427	  -1209.92230197	      0.00000000	      0.00000000	     -0.00000000	  -3947.93409787	     -4.97895635	   -132.33874468	   -605.51495361	   -301.87008570	   -571.99985126	      0.00000000	      0.00000000	     -0.00000000	  -3715.24304582	      0.00000000	     -0.00000000	      0.00000000	      0.00000000	      0.00000000	      0.00000000	      0.00000000	      0.00000000	      0.00000000
      7.40000000	      0.00000000	     -0.00000000	      0.00000000	      0.00000000	      0.00000000	      0.00000000	      0.00000000	      0.00000000	      0.00000000	     33.20833969	    155.62277222	   -782.38079834	   -305.51363632	  -1209.09594503	      0.00000000	      0.00000000	     -0.00000000	  -3744.97839856	     -2.87246863	   -121.76204656	   -581.73272705	   -302.16860695	   -571.47137612	      0.00000000	      0.00000000	     -0.00000000	  -4312.15474102	      0.00000000	     -0.00000000	      0.00000000	      0.00000000	      0.00000000	      0.00000000	      0.00000000	      0.00000000	      0.00000000
      7.41000000	      0.00000000	     -0.00000000	      0.00000000	      0.00000000	      0.00000000	      0.00000000	      0.00000000	      0.00000000	      0.00000000	     47.14878082	    151.51284790	   -787.94445801	   -309.18795428	  -1208.47531070	      0.00000000	      0.00000000	     -0.00000000	  -3359.42337883	      2.47301231	   -116.08551810	   -570.59942627	   -304.34990998	   -572.06267164	      0.00000000	     -0.00000000	     -0.00000000	  -5183.69074255	      0.00000000	     -0.00000000	      0.00000000	      0.00000000	      0.00000000	      0.00000000	      0.00000000	      0.00000000	      0.00000000
      7.42000000	      0.00000000	     -0.00000000	      0.00000000	      0.00000000	      0.00000000	      0.00000000	      0.00000000	      0.00000000	      0.00000000	     54.21550751	    148.45890808	   -775.32690430	   -311.02825767	  -1208.91273653	      0.00000000	      0.00000000	     -0.00000000	  -2830.44724579	     14.74500536	   -111.90358100	   -566.63067627	   -307.42874392	   -572.10965741	      0.00000000	      0.00000000	     -0.00000000	  -5464.22856935	      0.00000000	     -0.00000000	      0.00000000	      0.00000000	      0.00000000	      0.00000000	      0.00000000	      0.00000000	      0.00000000
      7.43000000	      0.00000000	     -0.00000000	      0.00000000	      0.00000000	      0.00000000	      0.00000000	      0.00000000	      0.00000000	      0.00000000	     60.32374573	    147.41490173	   -783.21099854	   -313.72040072	  -1208.64499219	      0.00000000	      0.00000000	     -0.00000000	  -1834.92450199	     31.35400619	   -104.81663787	   -575.09466553	   -311.39441289	   -573.41565864	      0.00000000	      0.00000000	     -0.00000000	  -6004.39552875	      0.00000000	     -0.00000000	      0.00000000	      0.00000000	      0.00000000	      0.00000000	      0.00000000	      0.00000000	      0.00000000
      7.44000000	      0.00000000	     -0.00000000	      0.00000000	      0.00000000	      0.00000000	      0.00000000	      0.00000000	      0.00000000	      0.00000000	     65.67998505	    145.71220398	   -816.67700195	   -316.59480513	  -1208.30562920	      0.00000000	      0.00000000	      0.00000000	   -652.64815920	     40.34237909	   -103.67920275	   -607.34014893	   -316.64978011	   -575.95363961	      0.00000000	      0.00000000	     -0.00000000	  -6880.08204925	      0.00000000	     -0.00000000	      0.00000000	      0.00000000	      0.00000000	      0.00000000	      0.00000000	      0.00000000	      0.00000000
      7.45000000	      0.00000000	     -0.00000000	      0.00000000	      0.00000000	      0.00000000	      0.00000000	      0.00000000	      0.00000000	      0.00000000	     63.72308350	    147.51080322	   -823.32727051	   -317.72477192	  -1208.65856405	      0.00000000	      0.00000000	     -0.00000000	    -28.26046491	     40.88044194	   -105.97568106	   -625.06323242	   -318.88130080	   -576.48831379	      0.00000000	      0.00000000	      0.00000000	  -7466.34091889	      0.00000000	     -0.00000000	      0.00000000	      0.00000000	      0.00000000	      0.00000000	      0.00000000	      0.00000000	      0.00000000
      7.46000000	      0.00000000	     -0.00000000	      0.00000000	      0.00000000	      0.00000000	      0.00000000	      0.00000000	      0.00000000	      0.00000000	     57.78097916	    149.50254822	   -812.74853516	   -317.40544028	  -1209.80233510	      0.00000000	      0.00000000	      0.00000000	    480.03196845	     32.78183928	   -110.06930829	   -617.13812256	   -317.97381754	   -574.61913301	      0.00000000	      0.00000000	     -0.00000000	  -7357.56366742	      0.00000000	     -0.00000000	      0.00000000	      0.00000000	      0.00000000	      0.00000000	      0.00000000	      0.00000000	      0.00000000
      7.47000000	      0.00000000	     -0.00000000	      0.00000000	      0.00000000	      0.00000000	      0.00000000	      0.00000000	      0.00000000	      0.00000000	     58.31550598	    149.46151733	   -808.23681641	   -317.89711038	  -1210.79371329	      0.00000000	     -0.00000000	      0.00000000	    937.17767612	     25.05432872	   -111.40400152	   -605.81805420	   -316.94077450	   -573.36352498	      0.00000000	      0.00000000	     -0.00000000	  -7694.76252258	      0.00000000	     -0.00000000	      0.00000000	      0.00000000	      0.00000000	      0.00000000	      0.00000000	      0.00000000	      0.00000000
      7.48000000	      0.00000000	     -0.00000000	      0.00000000	      0.00000000	      0.00000000	      0.00000000	      0.00000000	      0.00000000	      0.00000000	     67.04725647	    144.41021729	   -817.26263428	   -318.58664315	  -1210.52988458	      0.00000000	     -0.00000000	     -0.00000000	   1357.25265594	     28.07268538	   -107.55586488	   -618.34753418	   -318.31946300	   -573.71438254	      0.00000000	      0.00000000	     -0.00000000	  -8054.44753862	      0.00000000	     -0.00000000	      0.00000000	      0.00000000	      0.00000000	      0.00000000	      0.00000000	      0.00000000	      0.00000000
      7.49000000	      0.00000000	     -0.00000000	      0.00000000	      0.00000000	      0.00000000	      0.00000000	      0.00000000	      0.00000000	      0.00000000	     73.07332611	    137.34007263	   -813.68731689	   -319.01714389	  -1210.51458164	      0.00000000	     -0.00000000	      0.00000000	   1959.55075971	     38.32304987	   -105.39734222	   -650.97448730	   -321.84952261	   -575.98493016	      0.00000000	      0.00000000	     -0.00000000	  -8343.43854877	      0.00000000	     -0.00000000	      0.00000000	      0.00000000	      0.00000000	      0.00000000	      0.00000000	      0.00000000	      0.00000000
      7.50000000	      0.00000000	     -0.00000000	      0.00000000	      0.00000000	      0.00000000	      0.00000000	      0.00000000	      0.00000000	      0.00000000	     68.21663666	    131.55551147	   -809.72509766	   -318.79523517	  -1211.06101367	      0.00000000	     -0.00000000	      0.00000000	   2364.51715938	     44.92683244	   -106.31980526	   -680.22442627	   -324.20136427	   -577.20727927	      0.00000000	      0.00000000	     -0.00000000	  -8358.86394858	      0.00000000	     -0.00000000	      0.00000000	      0.00000000	      0.00000000	      0.00000000	      0.00000000	      0.00000000	      0.00000000
      7.51000000	      0.00000000	     -0.00000000	      0.00000000	      0.00000000	      0.00000000	      0.00000000	      0.00000000	      0.00000000	      0.00000000	     58.87132645	    129.84365845	   -802.93957520	   -316.89662725	  -1212.17991432	      0.00000000	      0.00000000	      0.00000000	   2545.25741989	     40.86664414	   -106.38747000	   -686.59088135	   -323.75505447	   -578.10231504	      0.00000000	      0.00000000	     -0.00000000	  -8481.95147641	      0.00000000	     -0.00000000	      0.00000000	      0.00000000	      0.00000000	      0.00000000	      0.00000000	      0.00000000	      0.00000000
